<?xml version="1.0" encoding="UTF-8"?>
<svg id="Layer_1" xmlns="http://www.w3.org/2000/svg" version="1.1" viewBox="0 0 1240.9 400">
  <!-- Generator: Adobe Illustrator 30.1.0, SVG Export Plug-In . SVG Version: 2.1.1 Build 136)  -->
  <defs>
    <style>
      .st0 {
        fill: #00549f;
      }

      .st1 {
        fill: #f98526;
      }
    </style>
  </defs>
  <g>
    <path class="st1" d="M824.9,172c-8.7,4.6-19.7,6.7-29.8,6.7-32.7,0-55.3-22.6-55.3-52.2s22.6-52.5,55.3-52.5,20.2,2.4,28.2,6.3v22.6c-7.4-5.1-17.7-8.8-28.1-8.8-19.7,0-33.1,13.8-33.1,32.2s13.1,32.4,34,32.4,20.4-3.7,28.8-9.4v22.7Z"/>
    <path class="st1" d="M878.3,173c-4.5,3.2-11.4,5.8-19.2,5.8s-11.5-1.4-16-4.5c-5.1-3.5-8.1-9-8.1-16.1s3.5-13.3,8.4-16.7c5.3-3.7,12.2-4.9,19.4-4.9s8.1.4,11.9,1.3v-2.7c0-3.4-1.1-5.9-2.7-7.3-2-1.8-5.6-2.9-10.7-2.9-7.7,0-14.7,2.5-20.2,5.5v-18.4c5.6-2.8,14-5.3,24.2-5.3s17.6,2.1,23,6.6c5.2,4.2,7.7,10.4,7.7,19.1v23.4c0,3.2,1.3,5.5,4.2,5.5s2.4-.3,3.5-.8v16c-2.4,1.3-6.2,2.1-10.2,2.1s-11.1-1.5-14.9-5.5h-.3ZM874.6,150.1c-2.2-.7-5.3-1-7.6-1-5.5,0-11,1.7-11,7s3.9,6.9,8.8,6.9,7.2-1.3,9.7-2.8v-10.1Z"/>
    <path class="st1" d="M914.8,69.9h21.3v107.3h-21.3v-107.3Z"/>
    <path class="st1" d="M959.4,184.4c7,4.4,15,7,22.3,7,10.4,0,16.8-5.3,16.8-15.6v-3.8h-.3c-4.1,2.8-10.4,4.5-16.1,4.5-16.7,0-32.2-12.9-32.2-33.8s14.5-36.1,35.9-36.1,12.4,1.5,17.3,3.9l16.7-2.9v68.2c0,21.8-14.9,33.8-36.9,33.8s-17.6-2.1-23.6-5.1v-20.2ZM998.6,127.2c-2.7-1.4-6.7-2.5-10.5-2.5-11.1,0-16.4,8.1-16.4,17.1s6.2,17.3,16.1,17.3,7.9-1.1,10.8-2.9v-28.9Z"/>
    <path class="st1" d="M1076.8,173c-4.5,3.2-11.4,5.8-19.2,5.8s-11.5-1.4-16-4.5c-5.1-3.5-8.1-9-8.1-16.1s3.5-13.3,8.4-16.7c5.3-3.7,12.2-4.9,19.4-4.9s8.1.4,11.9,1.3v-2.7c0-3.4-1.1-5.9-2.7-7.3-2-1.8-5.6-2.9-10.7-2.9-7.7,0-14.7,2.5-20.2,5.5v-18.4c5.6-2.8,14-5.3,24.2-5.3s17.6,2.1,23,6.6c5.2,4.2,7.7,10.4,7.7,19.1v23.4c0,3.2,1.3,5.5,4.2,5.5s2.4-.3,3.5-.8v16c-2.4,1.3-6.2,2.1-10.2,2.1s-11.1-1.5-14.9-5.5h-.3ZM1073.1,150.1c-2.2-.7-5.3-1-7.6-1-5.5,0-11,1.7-11,7s3.9,6.9,8.8,6.9,7.2-1.3,9.7-2.8v-10.1Z"/>
    <path class="st1" d="M1113.3,108.1h20.9v9.3h.3c4.8-6.6,11.5-10.1,20.1-10.1s2.9.1,4.5.6v20.1c-1.7-.4-3.8-.7-5.8-.7-7.4,0-13.6,2.2-18.7,8.1v41.8h-21.3v-69.1Z"/>
    <path class="st1" d="M1173,208.1l18.1-38.5-28.1-61.5h22.5l7.2,17.1c3.1,7.4,6,14.7,8.8,21.9h.3c3.1-7.6,6.2-14.9,9.4-22.3l7.3-16.7h21.2l-44.9,100h-21.8Z"/>
    <path class="st1" d="M793.6,202.6c10.7,0,20.6,2.7,28.6,7.2v14.6c-7.6-5.6-18-9.4-28.8-9.4-23.2,0-39.5,17.4-39.5,40s16.3,40,40.6,40,21.2-3.8,29.2-10.2v14.7c-8.1,5.2-19.2,7.9-29.9,7.9-30.9,0-53.2-22.3-53.2-52.1s21.1-52.7,52.9-52.7Z"/>
    <path class="st1" d="M837.4,198.5h12.6v46.9h.3c6-5.9,14.5-10.2,24.2-10.2s14,2.7,18.4,7.6c3.8,4.4,5.8,9.7,5.8,20.4v42.7h-12.6v-40.3c0-7.7-1-11.4-3.4-14-2.7-3.1-6.2-4.5-10.5-4.5-8.3,0-16.8,5.1-22,11.5v47.3h-12.6v-107.3Z"/>
    <path class="st1" d="M919,302.4c-4.5-3.4-7.3-8.6-7.3-15.3s3.7-13.3,9.1-16.8c5.2-3.4,12.2-4.6,19.4-4.6s10.2.7,14.7,1.8v-5.8c0-5.1-1.3-8.8-3.9-11.4-2.7-2.4-6.9-3.8-12.8-3.8-8.7,0-16,3.1-21.2,6.9v-12.4c5.3-3.2,12.8-5.9,23-5.9s15.7,1.8,20.6,6.3c4.1,3.7,6.9,9.5,6.9,18.1v29.3c0,4.2,1.5,7.3,5.3,7.3s2.9-.4,4.1-1v10.5c-1.7.7-4.1,1.3-6.7,1.3-5.5,0-10.7-2.4-13.3-7.3h-.3c-3.9,3.7-11.9,7.6-21.2,7.6s-11.8-1.4-16.4-4.9ZM954.9,290v-12.9c-3.8-1.1-9.1-1.8-13.5-1.8-8.6,0-17,2.5-17,10.7s5.8,10.1,13.2,10.1,13.1-2.7,17.3-6Z"/>
    <path class="st1" d="M999.4,336.7h-12.6v-100h12.6v4.5h.3c4.8-3.2,11.5-6,19.7-6,18.5,0,33.4,14.5,33.4,35.8s-16.1,36.4-36.1,36.4-12.6-1.7-17-3.8h-.3v33.1ZM1017,296.2c13.8,0,23-10.1,23-24.3s-9-25.4-22.7-25.4-12.9,2.2-17.8,6.3v38.6c4.4,2.4,10.8,4.8,17.6,4.8Z"/>
    <path class="st1" d="M1071.5,281.8v-33.7h-12.8v-11.4h12.8v-18.8l12.6-2.1v20.9h20.8v11.4h-20.8v31.3c0,8.6,1.3,16.4,10.4,16.4s7.7-1.3,10.4-2.9v11.9c-2.8,1.4-7.7,2.5-12.5,2.5s-11.2-1.3-15.7-6.5c-3.4-3.8-5.2-9.4-5.2-19.1Z"/>
    <path class="st1" d="M1122.7,274.9c1.8,13.6,11.9,21.1,25.6,21.1s17.6-3.8,23.9-8.6v13.5c-6.2,3.9-15.7,6.5-24.7,6.5-21.3,0-37.3-14.3-37.3-36.1s15.9-36.1,34.4-36.1,31.5,11.8,31.5,33.4-.1,4.6-.4,6.3h-52.8ZM1123,264.9h40.7c-1.1-13.8-11.2-18.4-19.5-18.4s-19,5.6-21.2,18.4Z"/>
    <path class="st1" d="M1189.7,236.7h12.6v10.1h.3c4.8-6.6,12.4-10.7,20.5-10.7s2.9.1,4.5.6v12.5c-1.7-.4-3.4-.6-4.9-.6-9.4,0-16,4.8-20.4,12.2v44.9h-12.6v-69.1Z"/>
  </g>
  <g>
    <path class="st0" d="M64.7,191.4c-.6,2.8-1.1,5.6-1.5,8.6-4.5,30.6,2.1,54.9,27.3,54.9s27.4-9.4,41.6-28.3l45.4,24.9c-18,26.3-45.1,51.7-94.8,51.7S-6.3,259.2,2.4,200c.4-2.9.8-5.7,1.4-8.6h60.9ZM10.4,169c17.4-45.6,56.5-72.3,103-72.3s68.8,21.2,77.6,58.9l-55.6,19.7c-4.7-18.6-10.2-30.3-29.4-30.3s-26.5,9.2-33.8,23.9H10.4Z"/>
    <path class="st0" d="M345.7,191.4c16,10.6,22.1,25,18.8,47.2-6.7,45.8-45.7,64.6-96.1,64.6s-64.9-10.6-84.8-24.3l34.6-43.5c13.8,10,39,20,58.4,20s27.8-3.4,29.1-12.9c1.1-7.4-5.7-12-32.9-18.3-33-7.5-53.8-15.8-62.1-32.8h134.9ZM206.6,169c.1-2.9.4-5.9.9-9.1,5.6-37.7,41.4-63.2,92-63.2s60.2,8.3,80.2,23.2l-34.6,43.5c-16.8-12-34.4-18.9-55.6-18.9s-22.3,5.2-23.4,12.3c-.8,5.4,2.6,8.6,14.3,12.3h-73.8Z"/>
    <polygon class="st0" points="515.3 169.1 502.9 99.9 452.4 99.9 419.6 169.1 515.3 169.1"/>
    <polygon class="st0" points="444.5 220.7 474.5 220.7 471.2 191.4 519.3 191.4 538.8 300.1 484.7 300.1 480.1 264.9 426 264.9 411.1 300.1 357.5 300.1 409 191.4 456.9 191.4 444.5 220.7"/>
  </g>
  <rect class="st0" x="640.4" width="7.4" height="400"/>
</svg>